<svg xmlns="http://www.w3.org/2000/svg" width="349.37701416015625" height="176.762451171875" viewBox="-367.5042419433594 9.338074684143066 349.37701416015625 176.762451171875"><title>Neo4j Graph Visualization</title><desc>Created using Neo4j (http://www.neo4j.com/)</desc><g class="layer relationships"><g class="relationship" transform="translate(-114.59952591328556 99.64507057983438) rotate(180.9914956001278)"><path class="outline" fill="#A5ABB6" stroke="none" d="M 12.066987298107785,21.900635094610966 L 12.933012701892222,21.400635094610966 A 113.32835625331919 113.32835625331919 0 0 0 84.95307034019677,75.01243537478074 L 84.72254394142146,75.98550144626185 A 114.32835625331919 114.32835625331919 0 0 1 12.066987298107785,21.900635094610966 Z M 131.4702385163337,77.23152252182241 L 131.29187515138904,76.24755783239213 A 113.32835625331919 113.32835625331919 0 0 0 206.06560015492323,26.548424232284557 L 203.55111864891245,24.912153241302377 L 210.3026460515501,20.954012550089786 L 209.4182421629376,28.730118886927464 L 206.9037606569268,27.093847895945284 A 114.32835625331919 114.32835625331919 0 0 1 131.4702385163337,77.23152252182241"/><text text-anchor="middle" pointer-events="none" font-size="8px" fill="#000000" x="108.04532481103392" y="81.52440036764423" transform="rotate(180 108.04532481103392 78.52440036764423)" font-family="sans-serif">DIRECTED</text></g><g class="relationship" transform="translate(-114.59952591328556 99.64507057983438) rotate(180.9914956001278)"><path class="outline" fill="#A5ABB6" stroke="none" d="M 21.40063509461097,12.933012701892217 L 21.90063509461097,12.06698729810778 A 178.35522618357695 178.35522618357695 0 0 0 90.57308840861174,34.779416241943835 L 90.45812031815231,35.772785427179656 A 179.35522618357695 179.35522618357695 0 0 1 21.40063509461097,12.933012701892217 Z M 126.26765139668888,36.31771208967717 L 126.18296246103031,35.32130465083651 A 178.35522618357695 178.35522618357695 0 0 0 195.5147049858814,14.708935763195962 L 194.09445296513198,12.066421014408895 L 201.9172814031761,11.835433506245153 L 197.4083743468806,18.23228876157872 L 195.9881223261312,15.589774012791652 A 179.35522618357695 179.35522618357695 0 0 1 126.26765139668888,36.31771208967717"/><text text-anchor="middle" pointer-events="none" font-size="8px" fill="#000000" x="108.35685821459253" y="39.441351716929546" transform="rotate(180 108.35685821459253 36.441351716929546)" font-family="sans-serif">WROTE</text></g><g class="relationship" transform="translate(-114.59952591328556 99.64507057983438) rotate(270.9914956001278)"><path class="outline" fill="#A5ABB6" stroke="none" d="M 6.953439040707552 24.018736134675446 L 17.306200844808384 62.65576918623819 A 17.916697508022974 17.916697508022974 0 1 1 -17.306200844808384 62.65576918623819 L -8.765172356425198 30.780216918698923 L -4.901469051268926 31.815493099109005 L -6.4704761275630185 24.148145657226706 L -11.662949835292403 30.00375978339136 L -7.79924653013613 31.039035963801442 L -16.340275018519314 62.91458823134071 A 16.916697508022974 16.916697508022974 0 1 0 16.340275018519314 62.91458823134071 L 5.987513214418485 24.277555179777966 Z"/><text text-anchor="middle" pointer-events="none" font-size="8px" fill="#000000" x="0" y="94.20964923467838" font-family="sans-serif">FOLLOWS</text></g><g class="relationship" transform="translate(-114.59952591328556 99.64507057983438) rotate(180.9914956001278)"><path class="outline" fill="#A5ABB6" stroke="none" d="M 25 0.5 L 82.57849382153414 0.5 L 82.57849382153414 -0.5 L 25 -0.5 Z M 134.35974382153415 0.5 L 191.93823764306828 0.5 L 191.93823764306828 3.5 L 198.93823764306828 0 L 191.93823764306828 -3.5 L 191.93823764306828 -0.5 L 134.35974382153415 -0.5 Z"/><text text-anchor="middle" pointer-events="none" font-size="8px" fill="#000000" x="108.46911882153414" y="3" transform="rotate(180 108.46911882153414 0)" font-family="sans-serif">PRODUCED</text></g><g class="relationship" transform="translate(-114.59952591328556 99.64507057983438) rotate(180.9914956001278)"><path class="outline" fill="#A5ABB6" stroke="none" d="M 21.40063509461097,-12.933012701892217 L 21.90063509461097,-12.06698729810778 A 178.35522618357695 178.35522618357695 0 0 1 85.73288683495848,-34.15200708076085 L 85.59078075882167,-35.14185851563633 A 179.35522618357695 179.35522618357695 0 0 0 21.40063509461097,-12.933012701892217 Z M 131.15193487930833,-35.83517917375835 L 131.04001348666173,-34.841462110471184 A 178.35522618357695 178.35522618357695 0 0 1 195.5147049858814,-14.708935763195962 L 194.09445296513198,-12.066421014408895 L 201.9172814031761,-11.835433506245153 L 197.4083743468806,-18.23228876157872 L 195.9881223261312,-15.589774012791652 A 179.35522618357695 179.35522618357695 0 0 0 131.15193487930833,-35.83517917375835"/><text text-anchor="middle" pointer-events="none" font-size="8px" fill="#000000" x="108.35685821459252" y="-33.441351716929546" transform="rotate(180 108.35685821459252 -36.441351716929546)" font-family="sans-serif">ACTED_IN</text></g><g class="relationship" transform="translate(-114.59952591328556 99.64507057983438) rotate(180.9914956001278)"><path class="outline" fill="#A5ABB6" stroke="none" d="M 12.066987298107785,-21.900635094610966 L 12.933012701892222,-21.400635094610966 A 113.32835625331919 113.32835625331919 0 0 1 84.09104862424988,-74.8046512425552 L 83.85291581747178,-75.77588384411673 A 114.32835625331919 114.32835625331919 0 0 0 12.066987298107785,-21.900635094610966 Z M 132.34979830580764,-77.06852807457426 L 132.16374166319943,-76.08598905461558 A 113.32835625331919 113.32835625331919 0 0 1 206.06560015492323,-26.548424232284557 L 203.55111864891245,-24.912153241302377 L 210.3026460515501,-20.954012550089786 L 209.4182421629376,-28.730118886927464 L 206.9037606569268,-27.093847895945284 A 114.32835625331919 114.32835625331919 0 0 0 132.34979830580764,-77.06852807457426"/><text text-anchor="middle" pointer-events="none" font-size="8px" fill="#000000" x="108.0453248110339" y="-75.52440036764423" transform="rotate(180 108.0453248110339 -78.52440036764423)" font-family="sans-serif">REVIEWED</text></g></g><g class="layer nodes"><g class="node" transform="translate(-338.50423431396484,95.77004352314285)"><circle class="outline" cx="0" cy="0" r="25" fill="#4C8EDA" stroke="#2870c2" stroke-width="2px"/><text text-anchor="middle" pointer-events="none" font-family="sans-serif" dy="1.5625" font-size="25" fill="#FFFFFF"/><text text-anchor="middle" pointer-events="none" y="5" font-size="10px" fill="#FFFFFF" font-family="sans-serif"> Movie</text></g><g class="node" transform="translate(-114.59952591328556,99.64507057983438)"><circle class="outline" cx="0" cy="0" r="25" fill="#ECB5C9" stroke="#da7298" stroke-width="2px"/><text text-anchor="middle" pointer-events="none" font-family="sans-serif" dy="1.5625" font-size="25" fill="#604A0E"/><text text-anchor="middle" pointer-events="none" y="5" font-size="10px" fill="#604A0E" font-family="sans-serif"> Person</text></g></g></svg>